<?xml version="1.0" encoding="UTF-8" standalone="no"?>
<svg
   xmlns:dc="http://purl.org/dc/elements/1.1/"
   xmlns:cc="http://creativecommons.org/ns#"
   xmlns:rdf="http://www.w3.org/1999/02/22-rdf-syntax-ns#"
   xmlns:svg="http://www.w3.org/2000/svg"
   xmlns="http://www.w3.org/2000/svg"
   xmlns:sodipodi="http://sodipodi.sourceforge.net/DTD/sodipodi-0.dtd"
   xmlns:inkscape="http://www.inkscape.org/namespaces/inkscape"
   sodipodi:docname="logo.svg"
   inkscape:version="1.0 (5b275a35d9, 2020-05-03)"
   id="svg8"
   version="1.1"
   viewBox="0 0 49 18"
   height="18mm"
   width="49mm">
  <defs
     id="defs2">
    <style
       id="style10">.cls-1{fill:#e67373;}.cls-1,.cls-3{stroke:#1d1d1b;stroke-miterlimit:10;stroke-width:1.1px;}.cls-2{fill:#1d1e1b;}.cls-3{fill:none;}.cls-4{fill:#1d1d1b;}</style>
  </defs>
  <sodipodi:namedview
     inkscape:window-maximized="0"
     inkscape:window-y="199"
     inkscape:window-x="602"
     inkscape:window-height="1020"
     inkscape:window-width="1501"
     width="51mm"
     units="mm"
     showgrid="false"
     inkscape:document-rotation="0"
     inkscape:current-layer="layer1"
     inkscape:document-units="mm"
     inkscape:cy="212.08929"
     inkscape:cx="184.08197"
     inkscape:zoom="1.979899"
     inkscape:pageshadow="2"
     inkscape:pageopacity="0.0"
     borderopacity="1.0"
     bordercolor="#666666"
     pagecolor="#ffffff"
     id="base" />
  <metadata
     id="metadata5">
    <rdf:RDF>
      <cc:Work
         rdf:about="">
        <dc:format>image/svg+xml</dc:format>
        <dc:type
           rdf:resource="http://purl.org/dc/dcmitype/StillImage" />
        <dc:title></dc:title>
      </cc:Work>
    </rdf:RDF>
  </metadata>
  <g
     id="layer1"
     inkscape:groupmode="layer"
     inkscape:label="Layer 1">
    <g
       transform="matrix(0.26458333,0,0,0.26458333,0.93921512,0.28752518)"
       data-name="mit Füllung"
       id="mit_Füllung">
      <path
         id="path14"
         d="m 29.55,15.85 h 0.25 0.14 a 5,5 0 0 0 0.68,0 c 0.37,0 0.44,-0.09 1,-0.15 l 0.71,-0.08 a 5.25,5.25 0 0 1 1.13,0.15 6.39,6.39 0 0 1 0.89,0.23 l 0.88,0.37 0.72,0.31 c 0.35,0.15 0.52,0.23 0.65,0.3 a 5.91,5.91 0 0 1 0.82,0.6 c 0.22,0.17 0.43,0.34 0.71,0.6 0.1,0.09 0.3,0.27 0.54,0.53 0.24,0.26 0.37,0.39 0.53,0.6 0.16,0.21 0.25,0.43 0.53,0.83 0.28,0.4 0.39,0.41 0.59,0.75 0.2,0.34 0.2,0.61 0.48,1.13 a 9.19,9.19 0 0 0 0.65,0.91 c 0.14,0.21 0.77,1.56 0.59,1.2 -0.18,-0.36 0.48,1 0.71,1.43 a 9.52,9.52 0 0 1 0.42,0.91 c 0.15,0.4 0.14,0.47 0.29,0.9 0.23,0.65 0.3,0.62 0.47,1.13 a 7.37,7.37 0 0 1 0.3,1.28 c 0.07,0.39 0.06,0.4 0.18,1.13 0.12,0.73 0.13,0.72 0.18,1.06 0.07,0.54 0,0.6 0.11,1.43 0.11,0.83 0.11,0.73 0.12,1.13 a 12.28,12.28 0 0 1 -0.06,1.43 c 0,0.49 -0.06,0.91 -0.12,1.51 -0.07,0.77 -0.11,1.16 -0.17,1.5 -0.13,0.67 -0.19,0.6 -0.42,1.58 a 7.37,7.37 0 0 1 -0.29,1.21 c -0.17,0.41 -0.27,0.46 -0.42,0.9 -0.15,0.44 -0.09,0.53 -0.23,0.91 a 6.13,6.13 0 0 1 -0.48,0.83 c -0.31,0.51 -0.27,0.48 -0.53,0.9 a 6.86,6.86 0 0 1 -0.59,0.9 c -0.3,0.35 -0.37,0.28 -0.77,0.68 -0.4,0.4 -0.4,0.57 -0.77,0.91 -0.37,0.34 -0.42,0.21 -0.95,0.6 -0.53,0.39 -0.45,0.46 -0.89,0.75 -0.44,0.29 -0.36,0.17 -0.82,0.45 -0.46,0.28 -0.42,0.31 -0.77,0.53 a 5.05,5.05 0 0 1 -1.13,0.53 c -0.46,0.15 -0.47,0.07 -1.12,0.22 -0.65,0.15 -0.68,0.25 -1.24,0.38 a 5.16,5.16 0 0 1 -1.37,0.15 c -0.61,0 -0.61,-0.14 -1.42,-0.22 -0.81,-0.08 -0.86,0 -1.54,-0.08 a 8.72,8.72 0 0 1 -1.36,-0.38 12.44,12.44 0 0 1 -1.24,-0.45 c -0.4,-0.17 -0.73,-0.34 -1.36,-0.68 a 16.69,16.69 0 0 1 -1.6,-0.9 10.37,10.37 0 0 1 -1.24,-1 6.2,6.2 0 0 1 -0.89,-1 c -0.19,-0.27 -0.17,-0.29 -0.59,-1 -0.42,-0.71 -0.41,-0.63 -0.71,-1.13 -0.15,-0.25 -0.36,-0.6 -0.59,-1 -0.23,-0.4 -0.47,-1 -0.65,-1.43 -0.36,-0.86 -0.59,-1.54 -0.65,-1.74 A 10.7,10.7 0 0 1 17.36,38.74 18,18 0 0 1 17.24,36.93 16.86,16.86 0 0 1 17,34.31 c 0,-0.47 0.11,-0.71 0.11,-1.36 0,-0.65 0,-0.66 0,-1.05 0.07,-0.55 0.2,-0.57 0.36,-1.28 0.16,-0.71 0.05,-0.84 0.24,-1.43 a 6.53,6.53 0 0 0 0.35,-1 5.91,5.91 0 0 1 0.12,-0.91 c 0.07,-0.2 0.32,-0.72 0.32,-0.72 v 0 c 0,0 0.14,-0.3 0.33,-0.66 0.19,-0.36 0.19,-0.39 0.32,-0.62 0.13,-0.23 0.21,-0.38 0.29,-0.51 a 3.77,3.77 0 0 0 0.36,-0.62 c 0.24,-0.53 0.22,-0.65 0.47,-1.13 a 7.16,7.16 0 0 1 0.53,-0.82 9.24,9.24 0 0 1 0.66,-0.83 11.12,11.12 0 0 1 0.82,-0.91 c 0.38,-0.36 0.68,-0.6 0.77,-0.68 0.38,-0.29 0.83,-0.6 0.83,-0.6 0,0 0.37,-0.39 0.59,-0.6 a 8.93,8.93 0 0 1 1,-0.75 c 0.56,-0.41 0.64,-0.48 1,-0.68 a 4.42,4.42 0 0 1 0.65,-0.38 c 0.36,-0.16 0.41,-0.11 0.83,-0.3 l 0.59,-0.3 v 0 l 0.38,-0.16 a 6.17,6.17 0 0 1 0.65,-0.21 v 0 z"
         class="cls-1" />
      <path
         id="path16"
         d="m 39.4,38.77 c 0,-0.5 0,-1 0,-1.54 0,-0.37 0,-0.74 0,-1.1 a 5,5 0 0 1 -0.1,-0.87 c 0,-0.42 0,-0.53 0,-0.9 a 6.48,6.48 0 0 0 -0.19,-1 9.88,9.88 0 0 0 -0.38,-1.12 c -0.12,-0.35 -0.23,-0.63 -0.31,-0.82 0,0 -0.22,-0.52 -0.44,-1 a 6,6 0 0 0 -0.5,-1 5,5 0 0 0 -0.62,-0.68 l -0.63,-0.6 a 6.63,6.63 0 0 0 -0.63,-0.52 2.16,2.16 0 0 0 -0.69,-0.3 5.08,5.08 0 0 0 -0.75,-0.15 1.58,1.58 0 0 0 -0.62,0 c -0.06,0 -0.15,0 -0.63,0.45 a 3.87,3.87 0 0 0 -0.56,0.52 c -0.06,0.09 -0.13,0.18 -0.19,0.29 a 1.37,1.37 0 0 0 -0.13,0.39 1.51,1.51 0 0 0 0.19,0.9 l 0.69,0.67 a 5.56,5.56 0 0 1 0.69,0.75 c 0.15,0.21 0.32,0.52 0.67,1.15 a 4.81,4.81 0 0 1 0.52,1.1 3.13,3.13 0 0 1 0.12,0.75 3.52,3.52 0 0 1 -0.25,1.34 3.14,3.14 0 0 1 -0.31,0.75 2.51,2.51 0 0 1 -0.63,0.75 1.46,1.46 0 0 1 -0.68,0.38 1.42,1.42 0 0 1 -0.69,-0.08 3.32,3.32 0 0 1 -0.88,-0.37 8.77,8.77 0 0 1 -0.75,-0.53 l -0.69,-0.52 c -0.21,-0.18 -0.38,-0.33 -0.5,-0.45 a 8.27,8.27 0 0 1 -0.5,-0.67 7.45,7.45 0 0 1 -0.38,-0.75 C 28.5,33.68 28.37,33.41 28.09,32.86 a 8.08,8.08 0 0 1 -0.44,-0.9 C 27.56,31.72 27.58,31.71 27.4,31.07 a 10.33,10.33 0 0 1 -0.31,-1.13 c 0,-0.19 0,-0.19 -0.13,-1 -0.13,-0.81 -0.11,-0.78 -0.13,-1 a 7.36,7.36 0 0 1 0.07,-1.49 5,5 0 0 1 0.37,-1.35 5.93,5.93 0 0 1 0.57,-1 4.43,4.43 0 0 1 0.75,-0.89 7.7,7.7 0 0 1 1,-0.68 c 0.61,-0.4 0.62,-0.42 0.81,-0.52 a 4.65,4.65 0 0 1 1,-0.38 4.7,4.7 0 0 1 1.5,-0.22 7.36,7.36 0 0 1 1.44,0.3 6.09,6.09 0 0 1 1.19,0.37 5.91,5.91 0 0 1 1,0.68 7.38,7.38 0 0 1 0.82,0.67 7,7 0 0 1 0.81,1 6.36,6.36 0 0 1 0.84,1.32 8.54,8.54 0 0 1 0.44,1.35 c 0.16,0.58 0.15,0.61 0.38,1.49 0.23,0.88 0.23,0.83 0.31,1.2 a 12.13,12.13 0 0 1 0.19,1.43 c 0,0.52 0,0.87 0,1.57 0,0.3 0,0.73 -0.07,1.27 0,0.28 -0.05,0.5 -0.06,0.6 -0.01,0.1 0,0.44 -0.11,0.88 0,0.2 -0.07,0.45 -0.14,0.77 0,0.16 0,0.24 -0.15,0.69 -0.15,0.45 -0.12,0.57 -0.16,0.73 -0.04,0.16 0,0.25 -0.06,0.41 a 6.27,6.27 0 0 1 -0.13,0.63 6.19,6.19 0 0 1 -0.19,0.68 8.66,8.66 0 0 1 -0.44,1.13 6.1,6.1 0 0 1 -0.68,1.2 6.21,6.21 0 0 1 -1.07,1 9.47,9.47 0 0 1 -0.94,0.67 c -0.16,0.1 -0.42,0.24 -0.94,0.52 -0.52,0.28 -0.85,0.47 -1,0.53 a 7.25,7.25 0 0 1 -1.13,0.3 8.63,8.63 0 0 1 -1.44,0.22 3.73,3.73 0 0 1 -1.31,0 5.53,5.53 0 0 1 -1,-0.4 9.07,9.07 0 0 1 -1,-0.52 4.18,4.18 0 0 1 -0.87,-0.63 C 27.22,43.27 27.26,43.24 26.74,42.6 26.59,42.42 26.44,42.23 26.24,42 L 25.61,41.33 C 25.28,40.97 25.12,40.79 25,40.63 a 7.25,7.25 0 0 1 -0.46,-0.88 c -0.29,-0.63 -0.51,-1.14 -0.62,-1.42 -0.37,-0.93 -0.41,-1 -0.44,-1.12 A 9.78,9.78 0 0 1 23.1,35.86 c -0.05,-0.3 -0.07,-0.65 -0.12,-1.35 0,-0.37 -0.05,-0.76 -0.06,-1.27 -0.01,-0.51 0,-0.43 0,-1.13 a 11.82,11.82 0 0 1 0,-1.27 c 0,-0.36 0.07,-0.4 0.18,-1.05 0.11,-0.65 0.09,-0.65 0.19,-1.27 a 12,12 0 0 1 0.38,-1.72 0.81,0.81 0 0 1 0,-0.11 l 0.08,-0.22 c 0.08,-0.18 0.3,-0.83 0.43,-1.18 0.13,-0.35 0.24,-0.71 0.31,-1 0.07,-0.29 0.1,-0.41 0.21,-0.82 a 8.85,8.85 0 0 1 0.3,-1.05 7.4,7.4 0 0 1 0.49,-1 11,11 0 0 1 0.86,-1.32 l 0.95,-1.32 c 0.49,-0.68 0.56,-0.79 0.76,-1 a 13.7,13.7 0 0 1 1.05,-1.13 3,3 0 0 1 0.28,-0.25 2.47,2.47 0 0 1 0.93,-0.46"
         class="cls-1" />
      <polygon
         id="polygon18"
         points="28.97,16.89 30.56,16.45 30.93,15.5 "
         class="cls-2" />
      <polygon
         id="polygon20"
         points="38.88,36.51 39.24,38.39 38.88,33.05 38.59,34.99 "
         class="cls-2" />
      <polygon
         id="polygon22"
         points="32.59,50.21 32.39,50.18 32.25,50.19 31.86,50.23 31.67,50.21 31.49,50.18 31.25,50.25 32.38,50.24 "
         class="cls-3" />
      <polygon
         id="polygon24"
         points="28.97,16.89 30.56,16.45 30.93,15.5 "
         class="cls-2" />
      <polygon
         id="polygon26"
         points="38.88,36.51 39.24,38.39 38.88,33.05 38.59,34.99 "
         class="cls-2" />
      <polygon
         id="polygon28"
         points="18.31,28.95 18.89,28.29 19.11,27.77 19.69,26.37 20.16,25.7 20.7,25.09 20.79,24.16 18.56,28.17 "
         class="cls-3" />
      <polygon
         id="polygon30"
         points="32.59,50.21 32.39,50.18 32.25,50.19 31.86,50.23 31.67,50.21 31.49,50.18 31.25,50.25 32.38,50.24 "
         class="cls-3" />
      <path
         id="path32"
         d="M 0.79,51.21 A 81.62,81.62 0 0 1 0.07,38.82 C 0.07,32.34 0,28.74 0.22,26 0.14,23.63 0,21.76 0,20 a 30.9,30.9 0 0 1 0.22,-4.54 11.34,11.34 0 0 1 2.59,-0.07 16.63,16.63 0 0 1 3.09,0.14 c -0.07,1.66 0.08,3.24 0.08,4.9 1.8,-3.17 4.46,-5.69 7.63,-5 a 2.24,2.24 0 0 1 1.58,-0.36 c 0.29,0.22 0.36,5.26 0.58,7.06 a 9.71,9.71 0 0 1 -2,-0.36 c -3,0 -6,3.31 -6.77,6.48 l 0.08,1.37 C 7,30.48 6.72,31.2 6.64,32.06 A 179.15,179.15 0 0 1 6.93,51.22 Z M 14.11,16.07 A 7,7 0 0 0 6.77,21.9 C 6.7,22.19 6.41,22.69 6.19,22.69 A 0.6,0.6 0 0 1 5.69,22.19 50.48,50.48 0 0 1 5,16.86 24.76,24.76 0 0 0 1,17.08 c 0.14,1.44 0.36,3.74 0.36,5.11 a 7.22,7.22 0 0 1 -0.22,2.88 c 0,0.65 -0.14,24.55 0.44,25.27 1.15,0 3.16,-0.36 4.46,-0.36 C 5.69,46.74 6,38.46 5.9,33.71 c 0,-1.51 0,-2.59 -0.07,-3.24 a 2.08,2.08 0 0 1 0.51,-1.58 c 0.43,-4.47 3,-7.93 6.19,-7.93 a 5.53,5.53 0 0 0 1.58,-0.14 c 0.15,-0.82 0,-4.18 0,-4.75 z"
         class="cls-4" />
      <path
         id="path34"
         d="m 57,20.53 a 3.88,3.88 0 0 0 -3,3.82 c 0,2.66 1.44,3.17 4.39,5 3,2.09 7.78,5.76 7.63,11.45 a 10.31,10.31 0 0 1 -2.66,8.06 12.93,12.93 0 0 1 -8.57,2.52 c -0.65,0 -1.15,0.15 -1.73,0.15 -2.38,0 -5.18,-1.37 -6.48,-2 0.36,-1.15 1.58,-4.82 2.23,-5.62 1.3,0.8 3.46,2.09 5.19,2.09 4,0 5.54,-1.58 5.54,-4.39 0,-2.81 -0.94,-4.1 -4,-6.48 -5.4,-2.74 -8.28,-6.34 -8.28,-9.72 0.36,-6 4.61,-10.44 10.8,-10.59 h 1.08 a 9.88,9.88 0 0 1 6.05,2.24 24.43,24.43 0 0 0 -1.94,5 6,6 0 0 0 -3.61,-1.59 z m 1,10.66 c -3.17,-2.38 -4.9,-3.82 -4.9,-6.34 0,-1.94 0,-5.54 6,-5.54 1.29,0 2.52,0.79 4,1.08 a 6.1,6.1 0 0 1 1.29,-3.1 c -1.87,-0.43 -3.53,-1.37 -6.48,-1.37 a 11.49,11.49 0 0 0 -6.69,2.88 c -1.88,1.73 -2,3.46 -2.52,6.2 0,4 2.23,6.77 7.41,9.36 2.88,2.16 4.61,4 4.61,6.33 0,1.88 0,4 -1.58,4.9 A 3.54,3.54 0 0 1 56.47,47.17 6.63,6.63 0 0 1 54.79,47 c -3,0 -3.53,0 -5.69,-1.29 -0.36,0.64 -0.79,1.87 -1.15,2.66 a 11.74,11.74 0 0 0 7,2.38 9.92,9.92 0 0 0 10.13,-10.06 Q 65.08,35 58,31.19 Z"
         class="cls-4" />
      <path
         id="path36"
         d="m 73.22,22.55 c -0.14,-0.51 -1.37,-4 -1.44,-4.83 0.86,-1.15 5.69,-2.52 9.14,-2.8 3.32,0.28 5.69,0.79 7.42,3.16 2.09,1.73 3.53,5.05 3.39,10.45 0.21,3.09 0.21,4 0.28,8.06 a 34.8,34.8 0 0 1 -0.5,6.19 c 0.5,2.38 0.5,5.55 0.79,8.07 0.07,0.21 -0.22,0.5 -0.57,0.65 -0.22,-0.36 -3.68,-0.15 -5,-0.29 A 3.88,3.88 0 0 1 86.37,51.06 0.42,0.42 0 0 1 86.15,50.7 c 0,-0.36 -0.22,-1.29 -0.36,-2.08 -1.79,1.58 -5.15,3.31 -7.89,3.31 -1.73,0 -3.82,-1.37 -5.83,-3 C 70.63,47.34 69.55,44.32 69.07,41 69.69,33.28 75,28.45 85,28.31 c 0.07,-0.86 0.07,-2.16 0.07,-2.81 a 5.09,5.09 0 0 0 -4.25,-5 53.38,53.38 0 0 0 -7.6,2.05 z m 0.86,-1.66 A 22.8,22.8 0 0 1 80,19 a 8.47,8.47 0 0 1 4.75,1.44 c 1.44,2.16 2,3.17 1.51,8.35 -9.21,0.36 -15.33,4.76 -15.91,12.24 0.43,2.81 0.94,5.84 3.17,7.28 a 10.84,10.84 0 0 0 4.89,2.81 c 3,-0.29 5.84,-1.59 7.13,-4.76 0.07,-0.21 0.43,-0.36 0.72,-0.36 0.29,0 0.58,0.29 0.87,0.58 a 0.58,0.58 0 0 1 -0.15,0.57 l 0.15,3.17 3.81,-0.14 c 0.15,-1.08 -0.57,-6.62 -0.5,-7.78 0.07,-3.24 0.29,-8.78 0.14,-14.25 -0.28,-8.86 -2.81,-12 -9.5,-12 -0.65,0 -5.69,0.5 -8.21,2.23 z m 7,26.28 h -0.65 a 1.92,1.92 0 0 1 -1.08,0.22 5.32,5.32 0 0 1 -4.46,-5.26 l 0.21,-1.87 c 0,-3.53 1.87,-8.06 11.23,-7.92 0,0.65 0,7.35 0.15,8.43 -0.01,1.08 -1.74,6.4 -5.41,6.4 z M 85.4,33.71 c -3.17,0.22 -5.76,0.79 -7.49,1.94 a 8.64,8.64 0 0 0 -1.44,4.9 11.3,11.3 0 0 0 1,5.26 5.1,5.1 0 0 0 2,0.57 c 5.26,0 5.91,-5.54 5.91,-6 a 51.09,51.09 0 0 1 0.01,-6.67 z"
         class="cls-4" />
      <path
         id="path38"
         d="M 122.32,42.21 V 46 a 30.23,30.23 0 0 0 0.36,5 c -0.14,0 -3,0.22 -4.39,0.22 a 2.79,2.79 0 0 1 -1.51,-0.29 c -0.14,-0.29 -0.43,-3 -0.58,-4.46 -2.08,5.25 -6.69,5.25 -8.42,5.25 -2.38,0 -4.11,-1.29 -5.55,-3 -3.81,-3 -4.89,-7.78 -4.89,-17.07 0,-9.29 4.89,-17 11.38,-17 a 7.91,7.91 0 0 1 6.84,3.67 C 115.41,15.58 115.2,9.9 115.2,5.65 c 0,-2.74 0.21,-5.12 0.5,-5.55 a 46.1,46.1 0 0 1 5.4,0 3.15,3.15 0 0 1 1.44,0.8 c 0,0.41 -0.36,41.6 -0.22,41.31 z M 102.88,18.59 c -3.17,2.52 -4.61,7.13 -4.61,13.32 0,6.48 0,12.38 4.11,15.84 a 8.59,8.59 0 0 0 5.9,2.88 8.39,8.39 0 0 0 7.56,-5.11 1.17,1.17 0 0 1 0.94,-0.43 c 0.29,0 0.5,0.43 0.5,0.79 v 4 c 0.65,0 3.82,0.14 4.25,-0.22 a 58.46,58.46 0 0 1 -0.93,-9 L 120.45,37 c 0.15,-7.56 0.65,-29.09 0.51,-35.43 a 25.15,25.15 0 0 1 -4.76,0 c 0.29,2 0.08,16.28 0.29,17.86 0.15,0.72 0.22,1.3 0,1.37 -0.22,0.07 -0.79,-0.5 -0.93,-0.87 -1.3,-2.52 -3.53,-3.52 -7,-4 a 9,9 0 0 0 -5.68,2.66 z m 7.13,0.93 c 3.17,0 6.19,3 6.77,7.35 a 4.64,4.64 0 0 0 -0.43,2.16 30.31,30.31 0 0 1 0.29,3.67 20.08,20.08 0 0 1 -0.44,4.9 4.64,4.64 0 0 1 -0.21,3 c -1.59,5.84 -4.39,6.63 -5.83,6.84 a 9.71,9.71 0 0 1 -4,-2.23 c -2.37,-1.94 -3.45,-5.69 -3.45,-10 0.03,-3.8 0.46,-15.69 7.29,-15.69 z M 109.65,21 c -4.9,1.16 -6,7 -6,12.39 0,6.19 1.08,12.31 6.77,12.31 1.44,0 3.82,-1.37 4.47,-5.54 a 4.55,4.55 0 0 0 0.14,-2.38 c 0.15,-1.37 0.43,-7.13 0.51,-8.21 0,-0.28 -0.36,-1.87 -0.15,-2.08 C 114.89,23.38 112.8,21 109.85,21 Z"
         class="cls-4" />
      <path
         id="path40"
         d="M 132.62,48.76 C 128.8,44.94 128,39.4 128,31.62 128,20.68 133.7,15 140.83,15 a 14.73,14.73 0 0 1 7.92,2.66 c 3,3.53 4.89,8.43 4.89,15.7 0,6.34 -2,11.59 -4.89,15 a 13.93,13.93 0 0 1 -8.07,3.17 20.87,20.87 0 0 1 -8.06,-2.77 z m 19.94,-15.84 c -0.79,-5.91 -1.72,-11.59 -4.75,-14.26 -1.73,-1.8 -5.25,-2.74 -7.41,-2.74 -10.16,0 -11.31,12.39 -11.31,19.95 a 19.06,19.06 0 0 0 4,11.88 10.76,10.76 0 0 0 7.35,2.88 c 6.65,0.51 12.12,-6.84 12.12,-17.71 z m -19.29,-1.15 c 0,-4 1.08,-12.53 6.91,-13 6.55,0 7.63,11.24 7.63,15.34 0,2.88 -0.29,8.86 -3.31,11.24 -1.15,1.29 -2.88,1.79 -3.67,1.44 -7.64,0.96 -7.56,-8.98 -7.56,-15.02 z m 13.1,2.52 v -3.17 c 0,-2.67 -0.65,-6.91 -3.31,-9.29 a 3.4,3.4 0 0 0 -2.52,-1.95 31.66,31.66 0 0 1 -3.31,1.73 c -1.95,2.6 -2.74,7.49 -2.74,10.16 0,5.4 0.94,11.08 3.17,12.52 0.65,0.94 1.3,1.88 2.74,1.45 4.32,0.14 5.97,-6.34 5.97,-11.45 z"
         class="cls-4" />
      <path
         id="path42"
         d="m 160.63,58 c 0.36,0 1.15,0.36 2.23,0.57 a 54.14,54.14 0 0 0 6.34,1.15 c 2.37,-0.28 6.62,-0.93 6.62,-10.58 -0.14,0.14 -0.14,-0.79 -0.14,-0.94 a 10,10 0 0 1 -7.13,3.17 c -1.88,0 -11.24,-2.59 -11.24,-17.93 0.29,-12.53 6.63,-18.22 12.32,-18.5 3.16,0 5.4,0.93 6.84,3.6 0,-1.08 0.07,-2.67 0.57,-3 0.5,-0.33 3.82,0 5.12,-0.29 0.21,0.29 0.43,0.65 0.64,0.94 a 71.78,71.78 0 0 0 -0.5,10.8 c 0.36,-0.5 -0.14,19 0,19.15 0.36,8.21 -0.58,12.17 -3.74,15 a 11.45,11.45 0 0 1 -9.51,4.61 c -1.8,0 -7.49,-1 -9.07,-2.52 -0.15,-0.29 0.93,-4.46 0.65,-5.23 z m 0.07,4.82 a 31.48,31.48 0 0 0 7.7,1.8 c 3.82,-0.29 7,-1.37 9.65,-4.1 1.44,-1.73 3.31,-4.61 3.31,-12 l -0.14,-5.83 c 0,-5.55 0.14,-16.06 0.5,-16.49 v -2.43 a 71.56,71.56 0 0 0 -0.21,-7.27 14.3,14.3 0 0 1 -3.46,0 l -0.14,3.75 a 2.12,2.12 0 0 1 -0.29,0.93 c -0.14,-0.22 -0.72,-0.65 -0.86,-0.93 -2,-3 -4.4,-4.4 -6.63,-4.4 a 9,9 0 0 0 -6.84,3 c -2.16,2 -4.25,6 -5,14.25 0,2.38 1.44,16.42 9.79,16.42 3.17,0 6.05,-0.29 7.92,-3.74 0.15,-0.36 0.22,-0.87 0.51,-0.87 0.29,0 0.5,0.22 0.79,0.87 -0.22,0.57 -0.14,3.45 -0.29,3.45 -0.21,4.61 -1.29,7.64 -2.88,10 a 10.55,10.55 0 0 1 -5,1.73 c -1.37,0 -5.4,-0.14 -7.34,-2.09 a 12.59,12.59 0 0 1 -1.09,3.93 z m 16.06,-29.88 a 13.4,13.4 0 0 0 0.5,4.61 c -0.14,0.93 0,2.23 -0.94,3.16 -0.79,4.11 -2.88,5.55 -6.48,5.55 a 4,4 0 0 1 -3.53,-1.58 c -2.37,-1.73 -2.8,-6.2 -2.8,-12.17 0,-8.07 2.8,-12.68 7.12,-13 3.17,0.51 5.33,1.95 5.84,5.76 0.79,0.79 0.79,1.23 0.65,3 -0.12,-0.27 -0.36,2.27 -0.36,4.65 z M 175.53,26 c -0.93,-2.23 -1.73,-5.11 -4.75,-5.11 l -1.15,-0.14 c -2.16,0 -5.69,4.46 -5.69,12.38 0.79,5.26 1.94,12.17 6.05,12.17 0.29,0 0.43,-0.14 0.79,-0.29 2,0.58 4,-1.29 4.39,-4.32 0.65,-1.08 0.36,-2.66 0.65,-3 a 40.09,40.09 0 0 1 -0.29,-5.33 23.23,23.23 0 0 1 0.43,-4.75 16.37,16.37 0 0 0 -0.43,-1.61 z"
         class="cls-4" />
    </g>
  </g>
</svg>
